<svg height="64" width="87" xmlns="http://www.w3.org/2000/svg" xmlns:xlink="http://www.w3.org/1999/xlink"><linearGradient id="a" x1="50%" x2="50%" y1="16.863%" y2="100%"><stop offset="0" stop-color="#fff" stop-opacity="0"/><stop offset=".28474" stop-color="#8ca9f9" stop-opacity=".2"/><stop offset="1" stop-color="#8ca9f9"/></linearGradient><g fill="none" fill-rule="evenodd"><path d="m-1-19h90v90h-90z"/><g fill-rule="nonzero"><g fill="#2f63f6"><path d="m3.944 30.022 5.12-2.526 6.008 3.003-5.189 2.663z" opacity=".201"/><path d="m.388 36.892 3.137-1.548 3.68 1.84-3.179 1.631z" opacity=".505"/><g opacity=".189"><path d="m9.622 39.724 35.38-17.454 41.513 20.757-35.851 18.398z"/><path d="m9.622 42.09 35.38-17.454 41.513 20.756-35.852 18.398z"/></g><path d="m70.606 32.172 5.12-2.526 6.009 3.004-5.19 2.663z" opacity=".33"/><path d="m66.306 25.821 3.45-1.703 4.05 2.025-3.497 1.794zm7.5-7.457 3.452-1.702 4.05 2.025-3.499 1.794z" opacity=".149"/><path d="m.388 21.198 6.414-3.164 7.525 3.762-6.5 3.335z" opacity=".201"/><path d="m58.476 35.154 14.324 8.383v4.853l-14.323 8.383-14.322-8.383v-4.853z"/></g><path d="m58.476 35.154 14.324 8.383-14.323 8.384-14.322-8.384z" fill="#8ca9f9"/><path d="m44.154 43.537 14.322 8.384v4.852l-14.322-8.383z" fill="#527fff"/><path d="m58.577 38.038 9.615 5.629-9.615 5.628-9.615-5.628z" fill="#2f63f6" opacity=".4"/></g><path d="m53.77 42.324c1.817-.518 3-.578 3.55-.179.824.599.617 1.058 1.5 1.655.882.596 2.878-.938 5.05.475" stroke="#ffcf42" stroke-linejoin="round"/><g fill-rule="nonzero"><path d="m37.322 13.038 14.323 8.384v14.468l-14.323 8.383-14.322-8.383v-14.468z" fill="#2f63f6"/><path d="m37.322 13.038 14.323 8.384-14.323 8.383-14.322-8.383z" fill="#8ca9f9"/><path d="m23 21.422 14.322 8.383v14.468l-14.322-8.383z" fill="#527fff"/></g><g fill="url(#a)" fill-rule="nonzero"><path d="m0 0h28.645v27.453l-14.323 8.383-14.322-8.383z" transform="translate(23 -6)"/><path d="m5.77 0h17.105v30.824l-8.553 5.012-8.553-5.012z" transform="translate(23 -6)"/></g><g stroke="#ffcf42" stroke-linecap="square"><path d="m29.73 16.153 3.798-5.086h5.237l6.358-6.527"/><path d="m44.152 4.262 1.57-.262-.335 1.852"/></g><g fill-rule="nonzero"><path d="m65.629 24.774-1.199-2.334c.134-1.295 1.35-2.23 2.718-2.088.089.01.177.023.265.041.66.138 1.306-.257 1.443-.88.062-.285.01-.582-.145-.829l-.275-.441a3.797 3.797 0 0 1 .694-4.867l.388-.35c.485-.438.5-1.17.032-1.636-.216-.212-.5-.34-.803-.36-1.37-.097-2.412-1.228-2.326-2.527.006-.084.017-.168.032-.252l1.607-2.419c-2.085-.06-3.167-.054-3.245.019-1.415 1.327-.293.115-1.22-.645-.238-.196-2.977-.3-3.447-.096a.88.88 0 0 0 -.536.714l-.151 1.458c-.134 1.295-1.35 2.23-2.718 2.088a2.626 2.626 0 0 1 -.265-.041c-.66-.138-1.306.257-1.443.88-.062.285-.01.582.145.829l.275.441a3.797 3.797 0 0 1 -.694 4.867l-.387.35c-.485.438-.5 1.17-.032 1.635.211.211.498.34.802.361 1.37.097 2.412 1.228 2.326 2.526a2.115 2.115 0 0 1 -.031.252l-.263 1.442c-.088.485.255.95.767 1.039.327.056 2.504.099 3.102.087.531-.011.448-.933.884-.575.11.09.216.327.32.712a.827.827 0 0 0 .803.613l2.577-.015zm-4.059-7.277c-1.1-.152-1.822-1.456-1.615-2.911.208-1.455 1.267-2.512 2.366-2.36 1.1.153 1.822 1.456 1.615 2.912-.208 1.455-1.267 2.512-2.366 2.36z" fill="#f8b911"/><path d="m65.972 24.63a.906.906 0 0 0 .484-.72l.151-1.457c.134-1.294 1.225-2.242 2.436-2.117.079.008.157.02.235.038.583.13 1.161-.272 1.29-.897.06-.28.017-.573-.118-.825l-.239-.438c-.859-1.578-.58-3.594.673-4.87l.348-.353a1.212 1.212 0 0 0 .048-1.634 1.039 1.039 0 0 0 -.707-.35c-1.215-.08-2.126-1.198-2.034-2.496.006-.085.016-.17.03-.252l.25-1.444c.084-.485-.215-.945-.668-1.028a.816.816 0 0 0 -.779.3c-.713.879-1.95.984-2.763.235a2.043 2.043 0 0 1 -.492-.7c-.19-.445-.685-.635-1.105-.426a.907.907 0 0 0 -.484.72l-.15 1.457c-.135 1.295-1.225 2.243-2.436 2.118a2.064 2.064 0 0 1 -.235-.038c-.584-.13-1.162.272-1.291.897-.06.28-.017.572.119.825l.238.438c.86 1.577.58 3.593-.673 4.869l-.348.354a1.212 1.212 0 0 0 -.047 1.634c.185.207.437.333.707.35 1.215.08 2.126 1.198 2.034 2.496a2.519 2.519 0 0 1 -.03.252l-.25 1.443c-.085.485.214.945.667 1.028a.816.816 0 0 0 .78-.3c.712-.878 1.95-.983 2.763-.234.209.193.376.431.491.7.19.445.685.635 1.105.426zm-1.844-7.08c-.974-.14-1.6-1.433-1.398-2.889.201-1.456 1.153-2.523 2.127-2.384.973.139 1.6 1.432 1.398 2.888s-1.154 2.524-2.127 2.385z" fill="#ffcf42"/></g></g></svg>