<svg height="71" width="105" xmlns="http://www.w3.org/2000/svg" xmlns:xlink="http://www.w3.org/1999/xlink"><mask id="a" fill="#fff"><path d="m5.012.214 6.871 3.508a.255.255 0 0 1 0 .454l-3.782 1.942a.985.985 0 0 1 -.899 0l-6.852-3.523a.255.255 0 0 1 0-.454l3.768-1.927a.983.983 0 0 1 .894 0z" fill="#fff" fill-rule="evenodd"/></mask><mask id="b" fill="#fff"><path d="m5.012.214 6.871 3.508a.255.255 0 0 1 0 .454l-3.782 1.942a.985.985 0 0 1 -.899 0l-6.852-3.523a.255.255 0 0 1 0-.454l3.768-1.927a.983.983 0 0 1 .894 0z" fill="#fff" fill-rule="evenodd"/></mask><mask id="c" fill="#fff"><path d="m5.012.214 6.871 3.508a.255.255 0 0 1 0 .454l-3.782 1.942a.985.985 0 0 1 -.899 0l-6.852-3.523a.255.255 0 0 1 0-.454l3.768-1.927a.983.983 0 0 1 .894 0z" fill="#fff" fill-rule="evenodd"/></mask><mask id="d" fill="#fff"><path d="m5.012.214 6.871 3.508a.255.255 0 0 1 0 .454l-3.782 1.942a.985.985 0 0 1 -.899 0l-6.852-3.523a.255.255 0 0 1 0-.454l3.768-1.927a.983.983 0 0 1 .894 0z" fill="#fff" fill-rule="evenodd"/></mask><mask id="e" fill="#fff"><path d="m5.012.214 6.871 3.508a.255.255 0 0 1 0 .454l-3.782 1.942a.985.985 0 0 1 -.899 0l-6.852-3.523a.255.255 0 0 1 0-.454l3.768-1.927a.983.983 0 0 1 .894 0z" fill="#fff" fill-rule="evenodd"/></mask><mask id="f" fill="#fff"><path d="m5.012.214 6.871 3.508a.255.255 0 0 1 0 .454l-3.782 1.942a.985.985 0 0 1 -.899 0l-6.852-3.523a.255.255 0 0 1 0-.454l3.768-1.927a.983.983 0 0 1 .894 0z" fill="#fff" fill-rule="evenodd"/></mask><mask id="g" fill="#fff"><path d="m5.012.214 6.871 3.508a.255.255 0 0 1 0 .454l-3.782 1.942a.985.985 0 0 1 -.899 0l-6.852-3.523a.255.255 0 0 1 0-.454l3.768-1.927a.983.983 0 0 1 .894 0z" fill="#fff" fill-rule="evenodd"/></mask><mask id="h" fill="#fff"><path d="m5.012.214 6.871 3.508a.255.255 0 0 1 0 .454l-3.782 1.942a.985.985 0 0 1 -.899 0l-6.852-3.523a.255.255 0 0 1 0-.454l3.768-1.927a.983.983 0 0 1 .894 0z" fill="#fff" fill-rule="evenodd"/></mask><mask id="i" fill="#fff"><path d="m6.779.575 5.513 2.626a.36.36 0 0 1 0 .65l-5.398 2.587a1.39 1.39 0 0 1 -1.202 0l-5.416-2.6 6.503-3.264z" fill="#fff" fill-rule="evenodd"/></mask><mask id="j" fill="#fff"><path d="m6.779.575 5.513 2.626a.36.36 0 0 1 0 .65l-5.398 2.587a1.39 1.39 0 0 1 -1.202 0l-5.416-2.6 6.503-3.264z" fill="#fff" fill-rule="evenodd"/></mask><mask id="k" fill="#fff"><path d="m6.779.575 5.513 2.626a.36.36 0 0 1 0 .65l-5.398 2.587a1.39 1.39 0 0 1 -1.202 0l-5.416-2.6 6.503-3.264z" fill="#fff" fill-rule="evenodd"/></mask><mask id="l" fill="#fff"><path d="m6.779.575 5.513 2.626a.36.36 0 0 1 0 .65l-5.398 2.587a1.39 1.39 0 0 1 -1.202 0l-5.416-2.6 6.503-3.264z" fill="#fff" fill-rule="evenodd"/></mask><mask id="m" fill="#fff"><path d="m6.779.575 5.513 2.626a.36.36 0 0 1 0 .65l-5.398 2.587a1.39 1.39 0 0 1 -1.202 0l-5.416-2.6 6.503-3.264z" fill="#fff" fill-rule="evenodd"/></mask><mask id="n" fill="#fff"><path d="m6.779.575 5.513 2.626a.36.36 0 0 1 0 .65l-5.398 2.587a1.39 1.39 0 0 1 -1.202 0l-5.416-2.6 6.503-3.264z" fill="#fff" fill-rule="evenodd"/></mask><mask id="o" fill="#fff"><path d="m6.779.575 5.513 2.626a.36.36 0 0 1 0 .65l-5.398 2.587a1.39 1.39 0 0 1 -1.202 0l-5.416-2.6 6.503-3.264z" fill="#fff" fill-rule="evenodd"/></mask><mask id="p" fill="#fff"><path d="m6.779.575 5.513 2.626a.36.36 0 0 1 0 .65l-5.398 2.587a1.39 1.39 0 0 1 -1.202 0l-5.416-2.6 6.503-3.264z" fill="#fff" fill-rule="evenodd"/></mask><g fill="none" fill-rule="evenodd"><path d="m-8-28h120v120h-120z"/><path d="m11.11-12.764h89.977v89.977h-89.977z" opacity=".1"/><g fill="#2f63f6" fill-rule="nonzero" opacity=".199"><path d="m84.494 25.358 7.052-3.527 8.274 4.194-7.146 3.717zm4.944-14.832 7.052-3.526 8.274 4.193-7.146 3.717zm-89.438.45 7.052-3.527 8.274 4.194-7.146 3.717zm4.944 49.438 7.052-3.526 8.274 4.193-7.146 3.717-8.18-4.384z"/><path d="m5.438 55.964 7.052-3.526 8.274 4.193-7.146 3.717z"/></g><g fill="#2f63f6" fill-rule="nonzero" opacity=".189"><path d="m4 40.854 44.3-21.854 51.98 25.99-44.892 23.035z"/><path d="m4 43.816 44.3-21.854 51.98 25.989-44.892 23.036z"/></g><path d="m55.965 51.897 6.87 3.508a.255.255 0 0 1 0 .454l-3.782 1.942a.985.985 0 0 1 -.898 0l-6.852-3.523a.255.255 0 0 1 0-.454l3.768-1.927a.983.983 0 0 1 .894 0z" fill="#8ca9f9" fill-rule="nonzero"/><path d="m55.965 51.897 6.87 3.508a.255.255 0 0 1 0 .454l-3.782 1.942a.985.985 0 0 1 -.898 0l-6.852-3.523a.255.255 0 0 1 0-.454l3.768-1.927a.983.983 0 0 1 .894 0z" stroke="#527fff" stroke-width=".57"/><g fill="#527fff" fill-rule="nonzero"><circle cx="3.395" cy="1.474" mask="url(#a)" r="1" transform="translate(50.952 51.683)"/><ellipse cx=".435" cy="2.244" mask="url(#b)" rx="1.087" ry="1" transform="translate(50.952 51.683)"/><ellipse cx="4.565" mask="url(#c)" rx="1.087" ry="1" transform="translate(50.952 51.683)"/><ellipse cx="11.739" cy="4.039" mask="url(#d)" rx="1.087" ry="1" transform="translate(50.952 51.683)"/><ellipse cx="7.609" cy="6.059" mask="url(#e)" rx="1.087" ry="1" transform="translate(50.952 51.683)"/><circle cx="9.047" cy="4.391" mask="url(#f)" r="1" transform="translate(50.952 51.683)"/></g><ellipse cx="6.117" cy="3.09" mask="url(#g)" rx="1.627" ry="1" stroke="#527fff" stroke-width=".5" transform="matrix(.95105652 -.30901699 .30901699 .95105652 50.296525 53.724492)"/><ellipse cx="6.117" cy="3.09" fill="#527fff" fill-rule="nonzero" mask="url(#h)" rx="1.017" ry="1" transform="matrix(.95105652 -.30901699 .30901699 .95105652 50.296525 53.724492)"/><path d="m27 10.493 21.037 10.657 21.036-10.658-21.089-10.492z" fill="#8ca9f9" fill-rule="nonzero"/><path d="m31.034 10.508 17.003 8.615 17.001-8.615-17.043-8.478z" stroke="#ffcf42" stroke-width=".5"/><g fill-rule="nonzero"><path d="m27 14.597v26.699l21.088 10.388 21.089-10.388v-26.7l-21.089 10.494z" fill="#4b0fa3"/><path d="m48.192 21.089-.208 30.594-20.984-10.388v-30.802z" fill="#527fff"/><path d="m48.081 21.089-.158 30.75 21.254-10.543-.017-30.883z" fill="#2f63f6"/><path d="m51.385 32.263-.108 4.975 14.546-7.217-.011-5.065z" fill="#f8b911"/><path d="m52.317 32.78-.093 2.99 12.652-6.277-.01-3.07z" fill="#ffcf42"/><path d="m61.683 28.387 5.542 2.64a.36.36 0 0 1 0 .65l-5.397 2.586a1.39 1.39 0 0 1 -1.202 0l-5.423-2.602z" fill="#8ca9f9"/></g><path d="m61.712 28.401 5.514 2.626a.36.36 0 0 1 0 .65l-5.398 2.586a1.39 1.39 0 0 1 -1.202 0l-5.416-2.599z" stroke="#527fff" stroke-width=".806"/><ellipse cx=".212" cy=".226" fill="#6a9e63" fill-rule="nonzero" mask="url(#i)" rx="1" ry="1" transform="translate(54.934 27.826)"/><ellipse cx="-4.017" cy="1.253" fill="#679d62" fill-rule="nonzero" mask="url(#j)" rx="1.553" ry="1" transform="translate(54.934 27.826)"/><ellipse cx="1.884" cy="-1.739" fill="#679d62" fill-rule="nonzero" mask="url(#k)" rx="1.553" ry="1" transform="translate(54.934 27.826)"/><ellipse cx="12.133" cy="3.646" fill="#527fff" fill-rule="nonzero" mask="url(#l)" rx="1.553" ry="1" transform="translate(54.934 27.826)"/><ellipse cx="6.232" cy="6.339" fill="#527fff" fill-rule="nonzero" mask="url(#m)" rx="1.553" ry="1" transform="translate(54.934 27.826)"/><ellipse cx="8.286" cy="4.115" fill="#527fff" fill-rule="nonzero" mask="url(#n)" rx="1" ry="1" transform="translate(54.934 27.826)"/><ellipse cx="4.101" cy="2.381" mask="url(#o)" rx="2.323" ry="1.318" stroke="#527fff" stroke-width=".5" transform="matrix(.95105652 -.30901699 .30901699 .95105652 54.399208 29.209455)"/><ellipse cx="4.101" cy="2.381" fill="#527fff" fill-rule="nonzero" mask="url(#p)" rx="1.453" ry="1" transform="matrix(.95105652 -.30901699 .30901699 .95105652 54.399208 29.209455)"/><path d="m48.021 47.726 21.166-10.338m-21.26 10.569-20.87-10.092m20.965-8.11 21.166-10.338m-21.168 10.338-20.966-9.86" opacity=".3" stroke="#fff"/><ellipse cx="71.243" cy="45.886" fill="#f8b911" fill-rule="nonzero" rx="2.899" ry="1.739"/><ellipse cx="71.243" cy="45.306" fill="#ffcf42" fill-rule="nonzero" rx="2.899" ry="1.739"/><g stroke="#fff" stroke-linecap="round" stroke-width=".5" transform="translate(68.344 43.567)"><path d="m1.86 2.285 1.997-1.077"/><path d="m4.02 1.604-.645-.34a.64.64 0 0 0 -.617.01.198.198 0 0 0 .003.346l.304.168a.214.214 0 0 1 -.002.377.708.708 0 0 1 -.687-.01l-.617-.353" stroke-linejoin="round"/></g><ellipse cx="72.402" cy="44.727" fill="#f8b911" fill-rule="nonzero" rx="2.899" ry="1.739"/><ellipse cx="72.402" cy="44.147" fill="#ffcf42" fill-rule="nonzero" rx="2.899" ry="1.739"/><g stroke="#fff" stroke-linecap="round" stroke-width=".5" transform="translate(69.503 42.408)"><path d="m1.86 2.285 1.997-1.077"/><path d="m4.02 1.604-.645-.34a.64.64 0 0 0 -.617.01.198.198 0 0 0 .003.346l.304.168a.214.214 0 0 1 -.002.377.708.708 0 0 1 -.687-.01l-.617-.353" stroke-linejoin="round"/></g><ellipse cx="73.562" cy="42.987" fill="#f8b911" fill-rule="nonzero" rx="2.899" ry="1.739"/><ellipse cx="73.562" cy="42.407" fill="#ffcf42" fill-rule="nonzero" rx="2.899" ry="1.739"/><g stroke="#fff" stroke-linecap="round" stroke-width=".5" transform="translate(70.663 40.668)"><path d="m1.86 2.285 1.997-1.077"/><path d="m4.02 1.604-.645-.34a.64.64 0 0 0 -.617.01.198.198 0 0 0 .003.346l.304.168a.214.214 0 0 1 -.002.377.708.708 0 0 1 -.687-.01l-.617-.353" stroke-linejoin="round"/></g><ellipse cx="65.446" cy="49.364" fill="#f8b911" fill-rule="nonzero" rx="2.899" ry="1.739"/><ellipse cx="65.446" cy="48.784" fill="#ffcf42" fill-rule="nonzero" rx="2.899" ry="1.739"/><g stroke="#fff" stroke-linecap="round" stroke-width=".5" transform="translate(62.547 47.045)"><path d="m1.86 2.285 1.997-1.077"/><path d="m4.02 1.604-.645-.34a.64.64 0 0 0 -.617.01.198.198 0 0 0 .003.346l.304.168a.214.214 0 0 1 -.002.377.708.708 0 0 1 -.687-.01l-.617-.353" stroke-linejoin="round"/></g></g></svg>