<svg height="61" width="87" xmlns="http://www.w3.org/2000/svg"><g fill="none" fill-rule="evenodd"><path d="m-1-22h90v90h-90z"/><g fill="#2f63f6" fill-rule="nonzero"><path d="m3.944 27.022 5.12-2.526 6.008 3.003-5.189 2.663z" opacity=".201"/><path d="m.388 33.892 3.137-1.548 3.68 1.84-3.179 1.631z" opacity=".505"/><g opacity=".189"><path d="m9.622 36.724 35.38-17.454 41.513 20.757-35.851 18.398z"/><path d="m9.622 39.09 35.38-17.454 41.513 20.756-35.852 18.398z"/></g><path d="m70.606 29.172 5.12-2.526 6.009 3.004-5.19 2.663z" opacity=".33"/><path d="m66.306 22.821 3.45-1.703 4.05 2.025-3.497 1.794zm7.5-7.457 3.452-1.702 4.05 2.025-3.499 1.794z" opacity=".149"/><path d="m.388 18.198 6.414-3.164 7.525 3.762-6.5 3.335z" opacity=".201"/></g><g opacity=".3"><path d="m24.985 35.366 1.493 5.507 8.612 1.12-1.642-1.07 15.499-8.239 7.008 3.535 4.89-2.641-11.62-6.214-20.603 10.396z" fill="#2f63f6"/><path d="m70.07 38.354-8.355-.91 2.093 1.41-14.608 7.318-5.854-3.138-5.245 2.815 10.625 5.685 19.541-9.531 3.14 2.18z" fill="#ffa125"/></g><path d="m24.948 9.639v5.607l1.811 5.607v-5.708z" fill="#527fff"/><path d="m33.862 14.828 15.338-9.213 7.325 3.223v5.62l-7.214-3.164-13.611 7.726z" fill="#2f63f6"/><path d="m35.692 15.831v5.753l-8.932-.73v-5.704zm20.832-1.391v-5.6l4.834-2.952v5.374z" fill="#2f63f6"/><path d="m24.948 9.623 1.813 5.527 8.828.681-1.728-1.002 15.339-9.215 7.323 3.225 4.838-2.95-12.161-5.706-20.422 11.683z" fill="#8ca9f9"/><path d="m63.516 10.84.017 3.585.903.602 1.289-2.86z" fill="#f8b911" opacity=".825"/><path d="m51.051 25.76.002 5.749 19.383-10.687 3.309 2.014v-5.65l-3.309-2.173z" fill="#ffa125"/><path d="m39.938 20.657v5.162l11.115 5.69v-5.631z" fill="#f8b911"/><path d="m72.072 11.324-8.555-.482 2.207 1.325-14.483 8.23-6.127-2.883-5.19 3.146 11.12 5.22 19.387-10.745 3.314 2.051z" fill="#ffcf42"/></g></svg>