<svg height="66" width="87" xmlns="http://www.w3.org/2000/svg"><g fill="none" fill-rule="evenodd"><path d="m-1-17h90v90h-90z"/><g fill-rule="nonzero"><g fill="#2f63f6"><path d="m3.944 32.022 5.12-2.526 6.008 3.003-5.189 2.663z" opacity=".201"/><path d="m.388 38.892 3.137-1.548 3.68 1.84-3.179 1.631z" opacity=".505"/><g opacity=".189"><path d="m9.622 41.724 35.38-17.454 41.513 20.757-35.851 18.398z"/><path d="m9.622 44.09 35.38-17.454 41.513 20.756-35.852 18.398z"/></g><path d="m70.606 34.172 5.12-2.526 6.009 3.004-5.19 2.663z" opacity=".33"/><path d="m66.306 27.821 3.45-1.703 4.05 2.025-3.497 1.794zm7.5-7.457 3.452-1.702 4.05 2.025-3.499 1.794z" opacity=".149"/><path d="m.388 23.198 6.414-3.164 7.525 3.762-6.5 3.335z" opacity=".201"/><path d="m49.076 33.881 19.86-11.625v6.73l-19.86 11.624zm0 10.326 19.86-11.625v6.729l-19.86 11.625z"/></g><path d="m29.216 22.256 19.86 11.625v6.73l-19.86-11.626zm0 10.326 19.86 11.625v6.729l-19.86-11.626z" fill="#527fff"/><path d="m49.076.337 19.86 11.625v6.729l-19.86 11.625-19.86-11.625v-6.729z" fill="#ffa125"/><path d="m49.076.337 19.86 11.625-19.86 11.625-19.86-11.625z" fill="#ffcf42"/><path d="m29.216 11.962 19.86 11.625v6.729l-19.86-11.626z" fill="#f8b911"/></g></g></svg>