<svg height="66" width="87" xmlns="http://www.w3.org/2000/svg"><g fill="none" fill-rule="evenodd"><path d="m-1-17h90v90h-90z"/><g fill-rule="nonzero"><g fill="#2f63f6"><path d="m3.944 32.022 5.12-2.526 6.008 3.003-5.189 2.663z" opacity=".201"/><path d="m.388 38.892 3.137-1.548 3.68 1.84-3.179 1.631z" opacity=".505"/><g opacity=".189"><path d="m9.622 41.724 35.38-17.454 41.513 20.757-35.851 18.398z"/><path d="m9.622 44.09 35.38-17.454 41.513 20.756-35.852 18.398z"/></g><path d="m70.606 34.172 5.12-2.526 6.009 3.004-5.19 2.663z" opacity=".33"/><path d="m66.306 27.821 3.45-1.703 4.05 2.025-3.497 1.794zm7.5-7.457 3.452-1.702 4.05 2.025-3.499 1.794z" opacity=".149"/><path d="m.388 23.198 6.414-3.164 7.525 3.762-6.5 3.335z" opacity=".201"/></g><path d="m57.109.52-7.27 4.158v30.723l7.27 4.158 7.271-4.158v-30.723z" fill="#527fff"/><path d="m46.08 21.037-7.271 4.159v17.278l7.27 4.159 7.271-4.159v-17.278z" fill="#527fff"/><path d="m34.424 36.456-7.27 4.159v8.316l7.27 4.158 7.272-4.158v-8.316z" fill="#f8b911"/><path d="m57.109.52-7.27 4.158 7.27 4.159 7.271-4.159zm-11.029 20.517-7.271 4.159 7.27 4.158 7.271-4.158z" fill="#8ca9f9"/><path d="m34.424 36.456-7.27 4.159 7.27 4.158 7.272-4.158z" fill="#ffcf42"/><path d="m64.38 4.678-7.27 4.159v30.722l7.271-4.158zm-11.03 20.518-7.27 4.158v17.279l7.27-4.159z" fill="#2f63f6"/><path d="m41.696 40.615-7.272 4.158v8.316l7.272-4.158z" fill="#ffa125"/><ellipse cx="9.445" cy="8.525" fill="#f8b911" rx="5.836" ry="7.766" transform="matrix(-.98162717952 -.19080899754 -.19080899754 .98162717952 41.71353682638 1.46538326515)"/><ellipse cx="6.889" cy="9.128" fill="#ffa125" rx="5.836" ry="7.766" transform="matrix(-.98162717952 -.19080899754 -.19080899754 .98162717952 41.84049387902 1.12169867815)"/></g><path d="m31.275 9.404 2.068 1.233 2.251-4.469" stroke="#ffcf42" stroke-linecap="round" stroke-linejoin="round" stroke-width="2"/></g></svg>