<svg height="71" width="105" xmlns="http://www.w3.org/2000/svg"><g fill="none" fill-rule="evenodd"><path d="m-8-28h120v120h-120z"/><g fill-rule="nonzero"><g fill="#2f63f6" opacity=".199"><path d="m84.494 25.358 7.052-3.527 8.274 4.194-7.146 3.717zm4.944-14.832 7.052-3.526 8.274 4.193-7.146 3.717zm-89.438.45 7.052-3.527 8.274 4.194-7.146 3.717zm4.944 49.438 7.052-3.526 8.274 4.193-7.146 3.717-8.18-4.384z"/><path d="m5.438 55.964 7.052-3.526 8.274 4.193-7.146 3.717z"/></g><g fill="#2f63f6" opacity=".189"><path d="m4 40.854 44.3-21.854 51.98 25.99-44.892 23.035z"/><path d="m4 43.816 44.3-21.854 51.98 25.989-44.892 23.036z"/></g><path d="m72.58 17.727 4.143-7.418-20.713-10.309-2.986 8.093z" fill="#8ca9f9"/><path d="m33.561 17.824-5.299-6.937 20.328-10.309 4.529 7.611z" fill="#8ca9f9"/><path d="m33.561 17.727 19.462 9.731 19.558-9.731-19.558-9.73z" fill="#2f63f6"/><path d="m59.165 29.312-6.976-3.061a.99.99 0 0 0 -1.386.94c.033.962.615 1.82 1.496 2.206l6.975 3.062a.99.99 0 0 0 1.387-.94 2.505 2.505 0 0 0 -1.496-2.207z" fill="#dfeafa"/><path d="m54.604 13.428 12.317 5.593c.449.204.743.644.76 1.137l.273 7.788a.866.866 0 0 1 -1.231.814l-12.328-5.762a1.298 1.298 0 0 1 -.748-1.13l-.265-7.621a.866.866 0 0 1 1.222-.819z" fill="#ffa125"/><path d="m53.296 14.49 12.316 5.593c.45.204.744.644.762 1.137l.271 7.788a.866.866 0 0 1 -1.231.814l-12.327-5.761a1.298 1.298 0 0 1 -.747-1.13l-.267-7.622a.866.866 0 0 1 1.223-.818z" fill="#ffcf42"/><g transform="matrix(.99939083 -.0348995 .0348995 .99939083 62.440863 26.226639)"><ellipse cx=".841" cy=".937" fill="#7239c6" rx="1" ry="1"/><ellipse cx="1.673" cy="1.358" fill="#fd8e16" rx="1" ry="1"/></g><path d="m52.16 15.911 14.184 6.452.088 2.538-14.184-6.452z" fill="#f8b911"/><path d="m43.852 13.428 12.316 5.593c.449.204.744.644.761 1.137l.272 7.788a.866.866 0 0 1 -1.231.814l-12.328-5.762a1.298 1.298 0 0 1 -.747-1.13l-.266-7.621a.866.866 0 0 1 1.223-.819z" fill="#ffa125"/><path d="m42.544 14.49 12.316 5.593c.449.204.744.644.761 1.137l.271 7.788a.866.866 0 0 1 -1.23.814l-12.328-5.761a1.298 1.298 0 0 1 -.747-1.13l-.267-7.622a.866.866 0 0 1 1.224-.818z" fill="#ffcf42"/><path d="m42.795 21.779 1.91.868c.15.068.248.215.254.379l.039 1.106a.216.216 0 0 1 -.308.204l-1.914-.895a.433.433 0 0 1 -.25-.377l-.037-1.08a.216.216 0 0 1 .306-.205zm-1.388-5.868 14.184 6.452.089 2.538-14.184-6.452z" fill="#f8b911"/><path d="m33.561 17.824v24.76l19.558 9.634 19.558-9.634v-24.76l-19.559 9.73z" fill="#4b0fa3"/><path d="m53.215 27.554-.096 24.664-19.558-9.634v-24.857z" fill="#527fff"/><path d="m34.563 41.563 3.006 1.503v-1.966l-3.006-1.504z" fill="#2f63f6"/><path d="m53.215 27.554-.192 13.103-19.462-9.634v-13.296z" fill="#2f63f6" opacity=".25"/><path d="m53.119 27.458-5.306 7.804-19.461-9.635 5.113-7.9z" fill="#8ca9f9"/><path d="m53.112 27.554.007 24.664 19.558-9.634v-24.857z" fill="#2f63f6"/><path d="m53.112 27.554v13.2l19.558-10.07v-11.993z" fill="#2f63f6" opacity=".2"/><path d="m53.016 27.458 5.306 7.804 19.46-9.635-5.112-7.9z" fill="#8ca9f9"/></g></g></svg>