<svg height="85" width="105" xmlns="http://www.w3.org/2000/svg"><g fill="none" fill-rule="evenodd"><path d="m-8-14h120v120h-120z"/><g fill="#2f63f6"><g fill-rule="nonzero" opacity=".199"><path d="m84.494 39.358 7.052-3.527 8.274 4.194-7.146 3.717zm4.944-14.832 7.052-3.526 8.274 4.193-7.146 3.717zm-89.438.45 7.052-3.527 8.274 4.194-7.146 3.717zm4.944 49.438 7.052-3.526 8.274 4.193-7.146 3.717-8.18-4.384z"/><path d="m5.438 69.964 7.052-3.526 8.274 4.193-7.146 3.717z"/></g><g fill-rule="nonzero" opacity=".189"><path d="m4 54.854 44.3-21.854 51.98 25.99-44.892 23.035z"/><path d="m4 57.816 44.3-21.854 51.98 25.989-44.892 23.036z"/></g><path d="m59.485 53.9-18.805 9.748v-48.168l18.805-9.75z"/></g><path d="m57.72 13.277-14.955 7.516v-3.238l14.955-7.641zm0 4.985-14.955 7.516v-3.24l14.955-7.64zm0 4.568-14.955 7.516v-3.239l14.955-7.64zm0 4.567-14.955 7.517v-3.24l14.955-7.64z" fill="#fff" opacity=".4"/><path d="m30 58.11 10.68 5.538v-48.168l-10.68-5.597z" fill="#527fff"/><path d="m30 9.883 10.68 5.58 18.805-9.753-10.682-5.562z" fill="#8ca9f9"/><path d="m70.183 59.423-17.205 9.854v-23.9l17.205-8.911z" fill="#ffa125"/><path d="m42.297 63.208 10.68 6.07v-23.9l-10.68-5.596z" fill="#f8b911"/><path d="m54.762 47.597v4.545l6.551-3.723v-4.452zm7.447-4.154v4.545l6.551-3.723v-4.45zm-7.447 10.382v4.545l6.551-3.723v-4.45zm7.447-4.152v4.545l6.551-3.723v-4.45zm-7.447 10.382v4.545l6.551-3.723v-4.45l-6.55 3.628zm7.447-4.152v4.545l6.551-3.723v-4.452z" fill="#fff" opacity=".4"/><path d="m42.297 39.782 10.68 5.578 17.204-8.912-10.68-5.562z" fill="#ffcf42"/><g fill-rule="nonzero"><path d="m50.706 37.791 4.821 2.415v-3.277l-4.82-2.413z" fill="#f8b911"/><path d="m60.344 37.716-4.817 2.49v-3.277l4.817-2.49z" fill="#ffa125"/><path d="m60.344 34.439-4.817 2.49-4.82-2.413 4.818-2.489z" fill="#ffcf42"/><path d="m58.712 34.896-3.185-1.575-3.214 1.608 3.245 1.603z" fill="#ffcf42"/><path d="m51.488 34.503.89.46 3.149-1.642v-.925z" fill="#ffa125"/><path d="m55.527 32.396v.925l3.185 1.575.894-.457z" fill="#f8b911"/><path d="m56.94 35.272-1.37.672v-.672l1.37-.69z" fill="#ffa125"/><path d="m54.202 35.216 1.37.728v-.67l-1.37-.73z" fill="#f8b911"/><path d="m54.202 34.543 1.37.729 1.368-.695-1.368-.725z" fill="#ffcf42"/><path d="m55.489 29.593-.407 4.94c0 .131.218.237.49.237.273 0 .49-.106.49-.237l-.41-4.94z" fill="#f8b911"/><path d="m43.958 5.903 4.82 2.413v-3.276l-4.82-2.413z" fill="#527fff"/><path d="m53.596 5.828-4.82 2.488v-3.276l4.82-2.488z" fill="#2f63f6"/><path d="m53.596 2.551-4.82 2.488-4.818-2.413 4.819-2.488z" fill="#8ca9f9"/><path d="m51.963 3.007-3.183-1.574-3.216 1.607 3.246 1.603z" fill="#8ca9f9"/><path d="m44.742 2.614.888.46 3.147-1.64v-.929z" fill="#2f63f6"/><path d="m48.777.506v.927l3.186 1.574.894-.456zm-12.685 9.392 4.819 2.413v-3.277l-4.82-2.413z" fill="#527fff"/><path d="m45.73 9.821-4.819 2.49v-3.277l4.819-2.49z" fill="#2f63f6"/><path d="m45.73 6.544-4.819 2.49-4.82-2.413 4.82-2.488z" fill="#8ca9f9"/><path d="m44.096 7.002-3.186-1.574-3.214 1.607 3.247 1.603 3.152-1.636z" fill="#8ca9f9"/><path d="m36.874 6.609.889.46 3.148-1.64v-.929l-4.037 2.11z" fill="#2f63f6"/><path d="m40.911 4.501v.927l3.185 1.574.894-.458z" fill="#527fff"/></g><path d="m73.651 14.902a2.619 2.619 0 0 0 -.306-.216c.007.07.007.14 0 .21l.105-.024c.066-.009.134.001.194.03zm-2.44-1.97c-.546-.09-1.047.47-1.222.68-.111-.052-.2-.098-.276-.134a1.018 1.018 0 0 0 -.336-.135 1.659 1.659 0 0 0 -.936.126c-1.121.442-1.818 2.376-1.818 2.376a1.643 1.643 0 0 0 -.92.734 2.336 2.336 0 0 0 -.276 1.112.873.873 0 0 0 -.412.569.606.606 0 0 0 .038.485s.201.41.898.732c.696.321.83.276.83.276-.135-.044-.195-.246-.128-.56a.873.873 0 0 1 .412-.568c-.006-.389.09-.772.277-1.112.2-.354.53-.617.919-.734 0 0 .698-1.934 1.817-2.376 1.12-.442 1.497.217 1.497.217s.612-.76 1.28-.64c.104.016.19.094.277.157-.275-.257-.565-.631-.892-.817a4.51 4.51 0 0 0 -1.028-.389z" fill="#f8b911"/><path d="m65.422 17.837a.873.873 0 0 0 -.412.568.604.604 0 0 0 .038.485s.2.41.898.732c.696.321.829.278.829.278-.135-.046-.194-.248-.128-.561a.885.885 0 0 1 .413-.57zm1.15-1.966a1.645 1.645 0 0 0 -.92.732 2.34 2.34 0 0 0 -.276 1.114l1.631.941c-.007-.389.088-.773.276-1.114.202-.353.531-.614.92-.731l-1.63-.942zm3.178-2.355-.09-.044h-.015l-.174-.089a.75.75 0 0 0 -.15-.038 1.673 1.673 0 0 0 -.934.127c-1.123.442-1.818 2.377-1.818 2.377l1.63.94s.7-1.934 1.818-2.376c.568-.223.941-.164 1.174-.05l-1.249-.756z" fill="#f8b911"/><path d="m66.798 19.888 6.71-3.928a.983.983 0 0 0 .314-.642c.075-.463-.246-.485-.35-.463l-.104.021s.075-.843-.592-.955-1.21.66-1.21.66-.46-.638-1.573-.205c-1.114.433-1.877 2.446-1.877 2.446-.386.122-.646.396-.852.745a2.343 2.343 0 0 0 -.276 1.114.873.873 0 0 0 -.412.567c-.082.404-.01.713.2.654z" fill="#ffcf42"/></g></svg>