<svg height="89" width="105" xmlns="http://www.w3.org/2000/svg" xmlns:xlink="http://www.w3.org/1999/xlink"><linearGradient id="a" x1="50%" x2="50%" y1="16.863%" y2="100%"><stop offset="0" stop-color="#fff" stop-opacity="0"/><stop offset=".28474" stop-color="#8ca9f9" stop-opacity=".2"/><stop offset="1" stop-color="#8ca9f9"/></linearGradient><g fill="none" fill-rule="evenodd"><path d="m-8-10h120v120h-120z"/><g fill-rule="nonzero"><g fill="#2f63f6"><g opacity=".199"><path d="m84.494 43.358 7.052-3.527 8.274 4.194-7.146 3.717zm4.944-14.832 7.052-3.526 8.274 4.193-7.146 3.717zm-89.438.45 7.052-3.527 8.274 4.194-7.146 3.717zm4.944 49.438 7.052-3.526 8.274 4.193-7.146 3.717-8.18-4.384z"/><path d="m5.438 73.964 7.052-3.526 8.274 4.193-7.146 3.717z"/></g><g opacity=".189"><path d="m4 58.854 44.3-21.854 51.98 25.99-44.892 23.035z"/><path d="m4 61.816 44.3-21.854 51.98 25.989-44.892 23.036z"/></g><path d="m51.694 22.825 24.693 14.454v24.945l-24.693 14.454-24.694-14.454v-24.945z"/></g><path d="m51.694 22.825 24.693 14.454-24.693 14.454-24.694-14.453z" fill="#8ca9f9"/><path d="m27 37.28 24.694 14.453v24.945l-24.694-14.454z" fill="#527fff"/><g fill="url(#a)"><path d="m0 0h49.387v47.332l-24.693 14.454-24.694-14.454z" transform="translate(27 -10)"/><path d="m9.947 0h29.493v53.145l-14.746 8.641-14.747-8.641z" transform="translate(27 -10)"/></g><path d="m43.41 8.593 6.16-.046 3.04 5.267-6.159.045z" fill="#ffa125"/><path d="m52.564 3.308-2.994 5.24 3.04 5.266 3.005-5.222z" fill="#f8b911"/><path d="m52.564 3.308-2.994 5.24-6.16.045 3.11-5.273z" fill="#ffcf42"/><path d="m53.662 21.098 5.312-3.12 5.266 3.041-5.312 3.12z" fill="#ffa125"/><path d="m58.947 11.944.027 6.035 5.266 3.04-.01-6.024z" fill="#f8b911"/><path d="m58.947 11.944.027 6.035-5.312 3.12.056-6.121z" fill="#ffcf42"/><path d="m47.555 29.696-.046-6.16 5.267-3.04.045 6.16z" fill="#ffa125"/><path d="m42.27 20.543 5.24 2.993 5.266-3.04-5.222-3.004z" fill="#f8b911"/><path d="m42.27 20.543 5.24 2.993.045 6.16-5.273-3.108z" fill="#ffcf42"/></g></g></svg>