<svg height="78" width="105" xmlns="http://www.w3.org/2000/svg"><g fill="none" fill-rule="evenodd"><path d="m-8-21h120v120h-120z"/><g fill-rule="nonzero"><g fill="#2f63f6"><g opacity=".199"><path d="m84.494 32.358 7.052-3.527 8.274 4.194-7.146 3.717zm4.944-14.832 7.052-3.526 8.274 4.193-7.146 3.717zm-89.438.45 7.052-3.527 8.274 4.194-7.146 3.717zm4.944 49.438 7.052-3.526 8.274 4.193-7.146 3.717-8.18-4.384z"/><path d="m5.438 62.964 7.052-3.526 8.274 4.193-7.146 3.717z"/></g><g opacity=".189"><path d="m4 47.854 44.3-21.854 51.98 25.99-44.892 23.035z"/><path d="m4 50.816 44.3-21.854 51.98 25.989-44.892 23.036z"/></g><path d="m52.881 28.047 20.46 11.976v6.932l-20.461 11.975-20.458-11.975v-6.932z"/></g><path d="m52.881 28.047 20.46 11.976-20.46 11.975-20.459-11.975z" fill="#fff"/><path d="m32.422 40.023 20.46 11.975v6.932l-20.46-11.975z" fill="#527fff"/><path d="m52.881 21.447 20.46 11.976v6.932l-20.461 11.975-20.458-11.975v-6.932z" fill="#2f63f6"/><path d="m52.881 21.447 20.46 11.976-20.46 11.975-20.459-11.975z" fill="#fff"/><path d="m32.422 33.423 20.46 11.975v6.932l-20.46-11.975z" fill="#527fff"/><path d="m52.881 15.947 20.46 11.976v6.932l-20.461 11.975-20.458-11.975v-6.932z" fill="#2f63f6"/><path d="m52.881 15.947 20.46 11.976-20.46 11.975-20.459-11.975z" fill="#fff"/><path d="m32.422 27.923 20.46 11.975v6.932l-20.46-11.975z" fill="#527fff"/><path d="m52.881 9.347 20.46 11.976v6.932l-20.461 11.975-20.458-11.975v-6.932z" fill="#2f63f6"/><path d="m52.881 9.347 20.46 11.976-20.46 11.975-20.459-11.975z" fill="#8ca9f9"/><path d="m32.422 21.323 20.46 11.975v6.932l-20.46-11.975z" fill="#527fff"/><path d="m68.382 43.335 4.297 2.6v6.59l-8.362 4.954-4.62-2.546v-6.59z" fill="#2f63f6"/><path d="m68.382 43.335 4.297 2.6-8.362 4.954-4.62-2.546z" fill="#8ca9f9"/><path d="m59.697 48.343 4.62 2.546v6.59l-4.62-2.546z" fill="#527fff"/><path d="m68.382 31.235 4.297 2.6v6.59l-8.362 4.954-4.62-2.546v-6.59z" fill="#ffa125"/><path d="m68.382 31.235 4.297 2.6-8.362 4.954-4.62-2.546z" fill="#ffcf42"/><path d="m59.697 36.243 4.62 2.546v6.59l-4.62-2.546z" fill="#f8b911"/><path d="m38.382 38.342-8.093 4.964v5.488l8.362 4.982 8.397-4.851v-5.516z" fill="#527fff"/><path d="m38.382 38.342-8.093 4.964 8.362 4.954 8.397-4.851z" fill="#8ca9f9"/><path d="m47.048 43.409-8.397 4.851v5.516l8.397-4.851z" fill="#2f63f6"/><path d="m52.99 14.573 12.1 7.083-12.1 7.082-12.1-7.082z" fill="#6875f8" opacity=".5"/><path d="m52.985.283 10.768 6.303v15.848l-10.768 6.303-10.768-6.303v-15.848z" fill="#ffa125"/><path d="m52.985.283 10.768 6.303-10.768 6.303-10.768-6.303z" fill="#ffcf42"/><path d="m42.217 6.586 10.768 6.303v15.848l-10.768-6.303z" fill="#f8b911"/></g></g></svg>