<svg height="65" width="87" xmlns="http://www.w3.org/2000/svg"><g fill="none" fill-rule="evenodd"><path d="m-1-18h90v90h-90z"/><g fill-rule="nonzero"><g fill="#2f63f6"><path d="m3.944 31.022 5.12-2.526 6.008 3.003-5.189 2.663z" opacity=".201"/><path d="m.388 37.892 3.137-1.548 3.68 1.84-3.179 1.631z" opacity=".505"/><g opacity=".189"><path d="m9.622 40.724 35.38-17.454 41.513 20.757-35.851 18.398z"/><path d="m9.622 43.09 35.38-17.454 41.513 20.756-35.852 18.398z"/></g><path d="m70.606 33.172 5.12-2.526 6.009 3.004-5.19 2.663z" opacity=".33"/><path d="m66.306 26.821 3.45-1.703 4.05 2.025-3.497 1.794zm7.5-7.457 3.452-1.702 4.05 2.025-3.499 1.794z" opacity=".149"/><path d="m.388 22.198 6.414-3.164 7.525 3.762-6.5 3.335z" opacity=".201"/><path d="m37.474 20.497 9.054 5.228v10.455l-9.054 5.228-9.054-5.228v-10.455z"/></g><path d="m37.474 20.497 9.054 5.228-9.054 5.227-9.054-5.227z" fill="#8ca9f9"/><path d="m28.42 25.725 9.054 5.227v10.456l-9.054-5.228z" fill="#527fff"/><path d="m49.192.625 9.054 5.228v10.455l-9.054 5.228-9.055-5.228v-10.455z" fill="#2f63f6"/><path d="m49.192.553 9.054 5.228-9.054 5.228-9.055-5.228z" fill="#8ca9f9"/><path d="m40.137 5.781 9.055 5.228v10.455l-9.055-5.228z" fill="#527fff"/><path d="m60.91 20.777 9.055 5.228v10.456l-9.055 5.227-9.055-5.227v-10.456z" fill="#2f63f6"/><path d="m60.91 20.777 9.055 5.228-9.055 5.228-9.055-5.228z" fill="#8ca9f9"/><path d="m51.855 26.005 9.055 5.228v10.455l-9.055-5.227z" fill="#527fff"/><path d="m37.474 7.11 9.054 5.228v10.456l-9.054 5.227-9.054-5.227v-10.456z" fill="#2f63f6"/><path d="m37.474 7.11 9.054 5.228-9.054 5.228-9.054-5.228z" fill="#8ca9f9"/><path d="m28.42 12.338 9.054 5.228v10.454l-9.054-5.227z" fill="#527fff"/><path d="m60.91 7.39 9.055 5.229v10.455l-9.055 5.228-9.055-5.228v-10.454z" fill="#2f63f6"/><path d="m60.91 7.39 9.055 5.229-9.055 5.227-9.055-5.227z" fill="#8ca9f9"/><path d="m51.855 12.619 9.055 5.227v10.456l-9.055-5.228z" fill="#527fff"/><path d="m49.192 27.47 9.054 5.228v10.455l-9.054 5.228-9.055-5.228v-10.455z" fill="#2f63f6"/><path d="m49.192 27.47 9.054 5.228-9.054 5.228-9.055-5.228z" fill="#8ca9f9"/><path d="m40.137 32.698 9.055 5.228v10.454l-9.055-5.228z" fill="#527fff"/><path d="m49.192 14.084 9.054 5.227v10.456l-9.054 5.228-9.055-5.228v-10.456z" fill="#ffa125"/><path d="m49.192 14.084 9.054 5.227-9.054 5.228-9.055-5.228z" fill="#ffcf42"/><path d="m40.137 19.311 9.055 5.228v10.456l-9.055-5.228z" fill="#f8b911"/></g></g></svg>